<?xml version="1.0" encoding="UTF-8" standalone="no"?>
<!-- Created with Inkscape (http://www.inkscape.org/) -->

<svg
   xmlns:dc="http://purl.org/dc/elements/1.1/"
   xmlns:cc="http://creativecommons.org/ns#"
   xmlns:rdf="http://www.w3.org/1999/02/22-rdf-syntax-ns#"
   xmlns:svg="http://www.w3.org/2000/svg"
   xmlns="http://www.w3.org/2000/svg"
   xmlns:sodipodi="http://sodipodi.sourceforge.net/DTD/sodipodi-0.dtd"
   xmlns:inkscape="http://www.inkscape.org/namespaces/inkscape"
   width="5364.7236mm"
   height="2680.0632mm"
   viewBox="0 0 5364.7235 2680.0633"
   version="1.1"
   id="svg8"
   inkscape:version="0.92.3 (2405546, 2018-03-11)"
   sodipodi:docname="drawing.svg">
  <defs
     id="defs2" />
  <sodipodi:namedview
     id="base"
     pagecolor="#ffffff"
     bordercolor="#666666"
     borderopacity="1.0"
     inkscape:pageopacity="0.0"
     inkscape:pageshadow="2"
     inkscape:zoom="0.047215208"
     inkscape:cx="9516.8295"
     inkscape:cy="4756.2094"
     inkscape:document-units="mm"
     inkscape:current-layer="layer1"
     showgrid="false"
     inkscape:window-width="1920"
     inkscape:window-height="1017"
     inkscape:window-x="1912"
     inkscape:window-y="-8"
     inkscape:window-maximized="1"
     fit-margin-top="0"
     fit-margin-left="0"
     fit-margin-right="0"
     fit-margin-bottom="0" />
  <metadata
     id="metadata5">
    <rdf:RDF>
      <cc:Work
         rdf:about="">
        <dc:format>image/svg+xml</dc:format>
        <dc:type
           rdf:resource="http://purl.org/dc/dcmitype/StillImage" />
        <dc:title></dc:title>
      </cc:Work>
    </rdf:RDF>
  </metadata>
  <g
     inkscape:label="Layer 1"
     inkscape:groupmode="layer"
     id="layer1"
     transform="translate(531.01809,531.30599)">
    <g
       id="g826"
       transform="matrix(140.91279,0,0,111.87776,-8553.619,-10435.513)"
       style="fill:#000000">
      <path
         style="fill:#000000;fill-opacity:1;stroke-width:0.26458332"
         d="m 74.499115,111.74338 c -1.031904,-0.71175 -1.061637,-0.77595 -1.190625,-2.5709 -0.141948,-1.97531 -0.34029,-2.50239 -0.941657,-2.50239 -0.209693,0 -0.38126,-0.11906 -0.38126,-0.26458 0,-0.14552 -0.176996,-0.26458 -0.393324,-0.26458 -0.216328,0 -0.560939,-0.40116 -0.765801,-0.89147 -0.455118,-1.08925 -1.351398,-1.75437 -2.3641,-1.75437 -0.534814,0 -0.800233,0.1552 -0.896773,0.52437 -0.122596,0.4688 -0.198028,0.43376 -0.711926,-0.33073 -0.918426,-1.36629 -2.754844,-1.32905 -3.333348,0.0676 -0.181597,0.43841 -0.370993,0.79712 -0.42088,0.79712 -0.04989,0 -1.464192,-0.6654 -3.142901,-1.47867 -3.401805,-1.64804 -3.49944,-1.79212 -2.397358,-3.537932 0.726701,-1.151168 3.418844,-6.43529 3.83118,-7.519816 0.298426,-0.784922 1.056147,-0.903958 2.143154,-0.336686 1.134176,0.591888 3.212248,1.231433 4.001293,1.231433 0.82798,0 0.954794,0.407912 0.373821,1.202441 -0.667805,0.913278 0.406551,2.213768 1.84119,2.228728 0.974053,0.01016 2.877602,-1.167492 3.266387,-2.020783 0.251247,-0.551426 0.456434,-0.616021 1.940277,-0.610825 1.991815,0.007 3.500574,0.623075 4.798303,1.95938 0.504867,0.519874 1.00351,0.945226 1.108095,0.945226 0.104587,0 0.454913,0.26789 0.778504,0.595312 0.323592,0.327422 0.828268,0.773907 1.121504,0.992188 2.786439,2.074194 5.891454,5.629064 5.891454,6.745004 0,0.67624 -1.11401,1.72552 -1.821619,1.71578 -0.648793,-0.009 -1.354392,-0.69986 -3.308631,-3.23981 -1.028028,-1.33614 -1.90632,-2.24451 -2.071493,-2.14242 -0.188785,0.11667 -0.137469,0.28638 0.150203,0.49673 0.240326,0.17573 0.437236,0.42545 0.437577,0.55493 3.44e-4,0.12947 0.360868,0.65213 0.80117,1.16145 0.440301,0.50933 1.165315,1.48926 1.611141,2.17764 l 0.810593,1.2516 -0.487283,0.99364 c -0.597186,1.21776 -1.725028,1.92577 -2.403229,1.50865 -0.255918,-0.15739 -1.273681,-1.34802 -2.261697,-2.64583 -0.988015,-1.29781 -1.91075,-2.39934 -2.050521,-2.44785 -0.562296,-0.19514 -0.177864,0.53664 1.333372,2.53811 0.873125,1.15637 1.5875,2.22847 1.5875,2.38245 0,0.30213 -1.496446,1.64993 -1.8319,1.64993 -0.343449,0 -1.171767,-0.84893 -2.517059,-2.57969 -1.139692,-1.46625 -1.736458,-1.9804 -1.736458,-1.49605 0,0.16331 1.049909,1.72593 1.316281,1.95907 0.465716,0.40761 1.064969,1.65721 1.064969,2.22075 0,0.75501 -0.633517,1.48733 -1.27567,1.47463 -0.244267,-0.005 -0.920372,-0.33728 -1.502455,-0.73876 z m -4.319504,-0.1294 c -0.373085,-0.39713 -0.575288,-0.95078 -0.575288,-1.5752 v -0.96283 l 0.74919,0.42998 c 0.412055,0.23649 0.947836,0.35375 1.190625,0.26058 0.588023,-0.22564 0.590387,-1.96412 0.0036,-2.61256 -0.521592,-0.57636 -0.03877,-0.65813 0.529655,-0.0897 0.553406,0.5534 0.785147,1.83314 0.579856,3.20212 -0.113346,0.75584 -0.07608,1.16622 0.105909,1.16622 0.154437,0 0.280795,0.1786 0.280795,0.39688 0,0.6879 -2.168893,0.52473 -2.864296,-0.21549 z m -2.806674,-1.75055 c -0.672987,-0.70244 -0.729049,-0.90415 -0.595799,-2.14363 0.171385,-1.59421 0.253528,-1.73264 0.705212,-1.18839 0.433239,0.52202 1.826897,0.52601 2.02652,0.006 0.23494,-0.61224 -0.132745,-1.7192 -0.571046,-1.7192 -0.215509,0 -0.391834,0.11906 -0.391834,0.26458 0,0.14552 0.119062,0.26459 0.264583,0.26459 0.145521,0 0.264584,0.23812 0.264584,0.52916 0,0.61232 -0.481939,0.68322 -1.179071,0.17346 -1.203491,-0.88001 0.447028,-2.45581 1.672908,-1.59717 0.858319,0.60119 0.914421,1.57383 0.175621,3.04474 -0.368202,0.73308 -0.669458,1.7398 -0.669458,2.23717 0,1.16291 -0.663436,1.21315 -1.70222,0.12889 z m 3.223574,-0.91582 c -0.552737,-0.41958 -0.598361,-1.04207 -0.106308,-1.45044 0.511392,-0.42441 1.339968,0.52877 1.104513,1.27063 -0.201362,0.63443 -0.36135,0.66325 -0.998205,0.17981 z m -6.200945,-0.62387 c -0.289973,-0.25466 -0.600069,-0.92003 -0.689101,-1.47859 -0.141087,-0.88513 -0.104059,-0.99172 0.288303,-0.82988 1.111858,0.45862 1.46791,0.45548 1.812662,-0.016 0.520154,-0.71135 0.439038,-1.45603 -0.238003,-2.18499 -0.553101,-0.59552 -0.558807,-0.63419 -0.08047,-0.54536 0.71314,0.13244 1.617856,1.71303 1.240665,2.16751 -0.156323,0.18836 -0.363764,1.01924 -0.46098,1.8464 -0.15534,1.3217 -0.247587,1.50393 -0.761304,1.50393 -0.3215,0 -0.821797,-0.20836 -1.111772,-0.46302 z m -2.296251,-2.60162 c -0.856922,-0.75354 -0.777048,-1.04796 0.216645,-0.79855 0.495488,0.12436 0.67378,0.3428 0.67378,0.82552 0,0.79281 0.04332,0.79412 -0.890425,-0.027 z m 2.477925,-0.11036 c 0,-0.14552 -0.178594,-0.26458 -0.396875,-0.26458 -0.4646,0 -0.515249,-0.60736 -0.113283,-1.35844 0.276083,-0.51587 0.301036,-0.51107 0.942361,0.18093 0.362323,0.39095 0.591894,0.88509 0.510158,1.09809 -0.08174,0.213 -0.148611,0.43707 -0.148611,0.49793 0,0.0609 -0.178594,0.11065 -0.396875,0.11065 -0.218281,0 -0.396875,-0.11906 -0.396875,-0.26458 z m 23.433776,-3.14881 c -0.393399,-0.56768 -1.547987,-1.83606 -2.565752,-2.818625 -1.351727,-1.304983 -1.756963,-1.84579 -1.503521,-2.006516 0.190825,-0.121017 0.460065,-0.221853 0.59831,-0.224082 0.142798,-0.0023 0.131614,-0.123792 -0.0259,-0.281301 -0.193278,-0.193278 -0.479674,-0.18502 -0.945589,0.02726 -0.722868,0.329361 -0.757063,0.30928 -3.232824,-1.898507 -0.590771,-0.526826 -1.58639,-1.217041 -2.212485,-1.53381 -0.909823,-0.46032 -1.105432,-0.679677 -0.974358,-1.092654 0.213827,-0.673708 -0.180572,-0.665574 -0.604009,0.01246 -0.390192,0.624797 -1.445921,0.694351 -2.00798,0.132292 -0.524111,-0.524111 -0.892798,-0.501625 -1.084579,0.06615 -0.398723,1.180447 -2.603312,2.976562 -3.653485,2.976562 -1.133739,0 -1.309068,-0.544189 -0.377095,-1.170434 0.566497,-0.380662 0.927256,-0.901232 1.097122,-1.583131 0.224721,-0.902109 0.185933,-1.070352 -0.346086,-1.501155 -0.494799,-0.400664 -0.548786,-0.579326 -0.309923,-1.025646 0.345836,-0.646201 1.383265,-0.712952 1.969494,-0.126723 0.58777,0.587769 1.102966,0.197171 0.548317,-0.415709 -0.410366,-0.45345 -0.359137,-0.499346 0.974952,-0.873461 2.391828,-0.670735 3.738275,-0.773728 4.324278,-0.330774 0.28786,0.217591 0.721819,0.399407 0.964354,0.404035 0.242535,0.0046 0.48066,0.09771 0.529167,0.206852 0.093,0.209248 2.795474,1.580759 4.586111,2.32746 2.307336,0.962166 5.126763,1.503073 4.7625,0.913686 -0.08994,-0.145521 -0.394621,-0.264583 -0.677074,-0.264583 -0.282453,0 -0.513551,-0.111602 -0.513551,-0.248004 0,-0.272009 3.381619,-2.014823 3.561117,-1.835325 0.105775,0.105775 4.1118,10.308103 4.1118,10.471713 0,0.0431 -0.168944,0.0783 -0.375433,0.0783 -0.206489,0 -0.712505,0.16912 -1.124479,0.37581 -0.411975,0.2067 -1.284828,0.59037 -1.939671,0.8526 -0.654844,0.26223 -1.250157,0.53959 -1.322917,0.61637 -0.161023,0.16991 -1.276387,0.80105 -1.415635,0.80105 -0.05494,0 -0.421772,-0.46446 -0.815173,-1.03214 z M 68.978758,93.507072 c 0.09805,-0.400182 0.272219,-0.765062 0.387052,-0.810844 0.114832,-0.04578 0.143205,-0.254142 0.06305,-0.463021 -0.08015,-0.208879 -0.02196,-0.379781 0.129325,-0.379781 0.535368,0 0.613676,1.039929 0.12849,1.706366 -0.633038,0.869525 -0.928482,0.847523 -0.707918,-0.05272 z"
         id="path842"
         inkscape:connector-curvature="0" />
      <path
         style="fill:#000000;fill-opacity:1;stroke-width:0.26458332"
         d="m 74.499115,111.74338 c -1.031904,-0.71175 -1.061637,-0.77595 -1.190625,-2.5709 -0.141948,-1.97531 -0.34029,-2.50239 -0.941657,-2.50239 -0.209693,0 -0.38126,-0.11906 -0.38126,-0.26458 0,-0.14552 -0.176996,-0.26458 -0.393324,-0.26458 -0.216328,0 -0.560939,-0.40116 -0.765801,-0.89147 -0.455118,-1.08925 -1.351398,-1.75437 -2.3641,-1.75437 -0.534814,0 -0.800233,0.1552 -0.896773,0.52437 -0.122596,0.4688 -0.198028,0.43376 -0.711926,-0.33073 -0.918426,-1.36629 -2.754844,-1.32905 -3.333348,0.0676 -0.181597,0.43841 -0.370993,0.79712 -0.42088,0.79712 -0.04989,0 -1.464192,-0.6654 -3.142901,-1.47867 -3.401805,-1.64804 -3.49944,-1.79212 -2.397358,-3.537932 0.726701,-1.151168 3.418844,-6.43529 3.83118,-7.519816 0.298426,-0.784922 1.056147,-0.903958 2.143154,-0.336686 1.134176,0.591888 3.212248,1.231433 4.001293,1.231433 0.82798,0 0.954794,0.407912 0.373821,1.202441 -0.667805,0.913278 0.406551,2.213768 1.84119,2.228728 0.974053,0.01016 2.877602,-1.167492 3.266387,-2.020783 0.251247,-0.551426 0.456434,-0.616021 1.940277,-0.610825 1.991815,0.007 3.500574,0.623075 4.798303,1.95938 0.504867,0.519874 1.00351,0.945226 1.108095,0.945226 0.104587,0 0.454913,0.26789 0.778504,0.595312 0.323592,0.327422 0.828268,0.773907 1.121504,0.992188 2.786439,2.074194 5.891454,5.629064 5.891454,6.745004 0,0.67624 -1.11401,1.72552 -1.821619,1.71578 -0.648793,-0.009 -1.354392,-0.69986 -3.308631,-3.23981 -1.028028,-1.33614 -1.90632,-2.24451 -2.071493,-2.14242 -0.188785,0.11667 -0.137469,0.28638 0.150203,0.49673 0.240326,0.17573 0.437236,0.42545 0.437577,0.55493 3.44e-4,0.12947 0.360868,0.65213 0.80117,1.16145 0.440301,0.50933 1.165315,1.48926 1.611141,2.17764 l 0.810593,1.2516 -0.487283,0.99364 c -0.597186,1.21776 -1.725028,1.92577 -2.403229,1.50865 -0.255918,-0.15739 -1.273681,-1.34802 -2.261697,-2.64583 -0.988015,-1.29781 -1.91075,-2.39934 -2.050521,-2.44785 -0.562296,-0.19514 -0.177864,0.53664 1.333372,2.53811 0.873125,1.15637 1.5875,2.22847 1.5875,2.38245 0,0.30213 -1.496446,1.64993 -1.8319,1.64993 -0.343449,0 -1.171767,-0.84893 -2.517059,-2.57969 -1.139692,-1.46625 -1.736458,-1.9804 -1.736458,-1.49605 0,0.16331 1.049909,1.72593 1.316281,1.95907 0.465716,0.40761 1.064969,1.65721 1.064969,2.22075 0,0.75501 -0.633517,1.48733 -1.27567,1.47463 -0.244267,-0.005 -0.920372,-0.33728 -1.502455,-0.73876 z m -4.319504,-0.1294 c -0.373085,-0.39713 -0.575288,-0.95078 -0.575288,-1.5752 v -0.96283 l 0.74919,0.42998 c 0.412055,0.23649 0.947836,0.35375 1.190625,0.26058 0.588023,-0.22564 0.590387,-1.96412 0.0036,-2.61256 -0.521592,-0.57636 -0.03877,-0.65813 0.529655,-0.0897 0.553406,0.5534 0.785147,1.83314 0.579856,3.20212 -0.113346,0.75584 -0.07608,1.16622 0.105909,1.16622 0.154437,0 0.280795,0.1786 0.280795,0.39688 0,0.6879 -2.168893,0.52473 -2.864296,-0.21549 z m -2.806674,-1.75055 c -0.672987,-0.70244 -0.729049,-0.90415 -0.595799,-2.14363 0.171385,-1.59421 0.253528,-1.73264 0.705212,-1.18839 0.433239,0.52202 1.826897,0.52601 2.02652,0.006 0.23494,-0.61224 -0.132745,-1.7192 -0.571046,-1.7192 -0.215509,0 -0.391834,0.11906 -0.391834,0.26458 0,0.14552 0.119062,0.26459 0.264583,0.26459 0.145521,0 0.264584,0.23812 0.264584,0.52916 0,0.61232 -0.481939,0.68322 -1.179071,0.17346 -1.203491,-0.88001 0.447028,-2.45581 1.672908,-1.59717 0.858319,0.60119 0.914421,1.57383 0.175621,3.04474 -0.368202,0.73308 -0.669458,1.7398 -0.669458,2.23717 0,1.16291 -0.663436,1.21315 -1.70222,0.12889 z m 3.223574,-0.91582 c -0.552737,-0.41958 -0.598361,-1.04207 -0.106308,-1.45044 0.511392,-0.42441 1.339968,0.52877 1.104513,1.27063 -0.201362,0.63443 -0.36135,0.66325 -0.998205,0.17981 z m -6.200945,-0.62387 c -0.289973,-0.25466 -0.600069,-0.92003 -0.689101,-1.47859 -0.141087,-0.88513 -0.104059,-0.99172 0.288303,-0.82988 1.111858,0.45862 1.46791,0.45548 1.812662,-0.016 0.520154,-0.71135 0.439038,-1.45603 -0.238003,-2.18499 -0.553101,-0.59552 -0.558807,-0.63419 -0.08047,-0.54536 0.71314,0.13244 1.617856,1.71303 1.240665,2.16751 -0.156323,0.18836 -0.363764,1.01924 -0.46098,1.8464 -0.15534,1.3217 -0.247587,1.50393 -0.761304,1.50393 -0.3215,0 -0.821797,-0.20836 -1.111772,-0.46302 z m -2.296251,-2.60162 c -0.856922,-0.75354 -0.777048,-1.04796 0.216645,-0.79855 0.495488,0.12436 0.67378,0.3428 0.67378,0.82552 0,0.79281 0.04332,0.79412 -0.890425,-0.027 z m 2.477925,-0.11036 c 0,-0.14552 -0.178594,-0.26458 -0.396875,-0.26458 -0.4646,0 -0.515249,-0.60736 -0.113283,-1.35844 0.276083,-0.51587 0.301036,-0.51107 0.942361,0.18093 0.362323,0.39095 0.591894,0.88509 0.510158,1.09809 -0.08174,0.213 -0.148611,0.43707 -0.148611,0.49793 0,0.0609 -0.178594,0.11065 -0.396875,0.11065 -0.218281,0 -0.396875,-0.11906 -0.396875,-0.26458 z m 23.433776,-3.14881 c -0.393399,-0.56768 -1.547987,-1.83606 -2.565752,-2.818625 -1.351727,-1.304983 -1.756963,-1.84579 -1.503521,-2.006516 0.190825,-0.121017 0.460065,-0.221853 0.59831,-0.224082 0.142798,-0.0023 0.131614,-0.123792 -0.0259,-0.281301 -0.193278,-0.193278 -0.479674,-0.18502 -0.945589,0.02726 -0.722868,0.329361 -0.757063,0.30928 -3.232824,-1.898507 -0.590771,-0.526826 -1.58639,-1.217041 -2.212485,-1.53381 -0.909823,-0.46032 -1.105432,-0.679677 -0.974358,-1.092654 0.213827,-0.673708 -0.180572,-0.665574 -0.604009,0.01246 -0.390192,0.624797 -1.445921,0.694351 -2.00798,0.132292 -0.524111,-0.524111 -0.892798,-0.501625 -1.084579,0.06615 -0.398723,1.180447 -2.603312,2.976562 -3.653485,2.976562 -1.133739,0 -1.309068,-0.544189 -0.377095,-1.170434 0.566497,-0.380662 0.927256,-0.901232 1.097122,-1.583131 0.224721,-0.902109 0.185933,-1.070352 -0.346086,-1.501155 -0.494799,-0.400664 -0.548786,-0.579326 -0.309923,-1.025646 0.345836,-0.646201 1.383265,-0.712952 1.969494,-0.126723 0.58777,0.587769 1.102966,0.197171 0.548317,-0.415709 -0.410366,-0.45345 -0.359137,-0.499346 0.974952,-0.873461 2.391828,-0.670735 3.738275,-0.773728 4.324278,-0.330774 0.28786,0.217591 0.721819,0.399407 0.964354,0.404035 0.242535,0.0046 0.48066,0.09771 0.529167,0.206852 0.093,0.209248 2.795474,1.580759 4.586111,2.32746 2.307336,0.962166 5.126763,1.503073 4.7625,0.913686 -0.08994,-0.145521 -0.394621,-0.264583 -0.677074,-0.264583 -0.282453,0 -0.513551,-0.111602 -0.513551,-0.248004 0,-0.272009 3.381619,-2.014823 3.561117,-1.835325 0.105775,0.105775 4.1118,10.308103 4.1118,10.471713 0,0.0431 -0.168944,0.0783 -0.375433,0.0783 -0.206489,0 -0.712505,0.16912 -1.124479,0.37581 -0.411975,0.2067 -1.284828,0.59037 -1.939671,0.8526 -0.654844,0.26223 -1.250157,0.53959 -1.322917,0.61637 -0.161023,0.16991 -1.276387,0.80105 -1.415635,0.80105 -0.05494,0 -0.421772,-0.46446 -0.815173,-1.03214 z M 68.978758,93.507072 c 0.09805,-0.400182 0.272219,-0.765062 0.387052,-0.810844 0.114832,-0.04578 0.143205,-0.254142 0.06305,-0.463021 -0.08015,-0.208879 -0.02196,-0.379781 0.129325,-0.379781 0.535368,0 0.613676,1.039929 0.12849,1.706366 -0.633038,0.869525 -0.928482,0.847523 -0.707918,-0.05272 z"
         id="path840"
         inkscape:connector-curvature="0" />
      <path
         style="fill:#000000;fill-opacity:1;stroke-width:0.26458332"
         d="m 74.499115,111.74338 c -1.031904,-0.71175 -1.061637,-0.77595 -1.190625,-2.5709 -0.141948,-1.97531 -0.34029,-2.50239 -0.941657,-2.50239 -0.209693,0 -0.38126,-0.11906 -0.38126,-0.26458 0,-0.14552 -0.176996,-0.26458 -0.393324,-0.26458 -0.216328,0 -0.560939,-0.40116 -0.765801,-0.89147 -0.455118,-1.08925 -1.351398,-1.75437 -2.3641,-1.75437 -0.534814,0 -0.800233,0.1552 -0.896773,0.52437 -0.122596,0.4688 -0.198028,0.43376 -0.711926,-0.33073 -0.918426,-1.36629 -2.754844,-1.32905 -3.333348,0.0676 -0.181597,0.43841 -0.370993,0.79712 -0.42088,0.79712 -0.04989,0 -1.464192,-0.6654 -3.142901,-1.47867 -3.401805,-1.64804 -3.49944,-1.79212 -2.397358,-3.537932 0.726701,-1.151168 3.418844,-6.43529 3.83118,-7.519816 0.298426,-0.784922 1.056147,-0.903958 2.143154,-0.336686 1.134176,0.591888 3.212248,1.231433 4.001293,1.231433 0.82798,0 0.954794,0.407912 0.373821,1.202441 -0.667805,0.913278 0.406551,2.213768 1.84119,2.228728 0.974053,0.01016 2.877602,-1.167492 3.266387,-2.020783 0.251247,-0.551426 0.456434,-0.616021 1.940277,-0.610825 1.991815,0.007 3.500574,0.623075 4.798303,1.95938 0.504867,0.519874 1.00351,0.945226 1.108095,0.945226 0.104587,0 0.454913,0.26789 0.778504,0.595312 0.323592,0.327422 0.828268,0.773907 1.121504,0.992188 2.786439,2.074194 5.891454,5.629064 5.891454,6.745004 0,0.67624 -1.11401,1.72552 -1.821619,1.71578 -0.648793,-0.009 -1.354392,-0.69986 -3.308631,-3.23981 -1.028028,-1.33614 -1.90632,-2.24451 -2.071493,-2.14242 -0.188785,0.11667 -0.137469,0.28638 0.150203,0.49673 0.240326,0.17573 0.437236,0.42545 0.437577,0.55493 3.44e-4,0.12947 0.360868,0.65213 0.80117,1.16145 0.440301,0.50933 1.165315,1.48926 1.611141,2.17764 l 0.810593,1.2516 -0.487283,0.99364 c -0.597186,1.21776 -1.725028,1.92577 -2.403229,1.50865 -0.255918,-0.15739 -1.273681,-1.34802 -2.261697,-2.64583 -0.988015,-1.29781 -1.91075,-2.39934 -2.050521,-2.44785 -0.562296,-0.19514 -0.177864,0.53664 1.333372,2.53811 0.873125,1.15637 1.5875,2.22847 1.5875,2.38245 0,0.30213 -1.496446,1.64993 -1.8319,1.64993 -0.343449,0 -1.171767,-0.84893 -2.517059,-2.57969 -1.139692,-1.46625 -1.736458,-1.9804 -1.736458,-1.49605 0,0.16331 1.049909,1.72593 1.316281,1.95907 0.465716,0.40761 1.064969,1.65721 1.064969,2.22075 0,0.75501 -0.633517,1.48733 -1.27567,1.47463 -0.244267,-0.005 -0.920372,-0.33728 -1.502455,-0.73876 z m -4.319504,-0.1294 c -0.373085,-0.39713 -0.575288,-0.95078 -0.575288,-1.5752 v -0.96283 l 0.74919,0.42998 c 0.412055,0.23649 0.947836,0.35375 1.190625,0.26058 0.588023,-0.22564 0.590387,-1.96412 0.0036,-2.61256 -0.521592,-0.57636 -0.03877,-0.65813 0.529655,-0.0897 0.553406,0.5534 0.785147,1.83314 0.579856,3.20212 -0.113346,0.75584 -0.07608,1.16622 0.105909,1.16622 0.154437,0 0.280795,0.1786 0.280795,0.39688 0,0.6879 -2.168893,0.52473 -2.864296,-0.21549 z m -2.806674,-1.75055 c -0.672987,-0.70244 -0.729049,-0.90415 -0.595799,-2.14363 0.171385,-1.59421 0.253528,-1.73264 0.705212,-1.18839 0.433239,0.52202 1.826897,0.52601 2.02652,0.006 0.23494,-0.61224 -0.132745,-1.7192 -0.571046,-1.7192 -0.215509,0 -0.391834,0.11906 -0.391834,0.26458 0,0.14552 0.119062,0.26459 0.264583,0.26459 0.145521,0 0.264584,0.23812 0.264584,0.52916 0,0.61232 -0.481939,0.68322 -1.179071,0.17346 -1.203491,-0.88001 0.447028,-2.45581 1.672908,-1.59717 0.858319,0.60119 0.914421,1.57383 0.175621,3.04474 -0.368202,0.73308 -0.669458,1.7398 -0.669458,2.23717 0,1.16291 -0.663436,1.21315 -1.70222,0.12889 z m 3.223574,-0.91582 c -0.552737,-0.41958 -0.598361,-1.04207 -0.106308,-1.45044 0.511392,-0.42441 1.339968,0.52877 1.104513,1.27063 -0.201362,0.63443 -0.36135,0.66325 -0.998205,0.17981 z m -6.200945,-0.62387 c -0.289973,-0.25466 -0.600069,-0.92003 -0.689101,-1.47859 -0.141087,-0.88513 -0.104059,-0.99172 0.288303,-0.82988 1.111858,0.45862 1.46791,0.45548 1.812662,-0.016 0.520154,-0.71135 0.439038,-1.45603 -0.238003,-2.18499 -0.553101,-0.59552 -0.558807,-0.63419 -0.08047,-0.54536 0.71314,0.13244 1.617856,1.71303 1.240665,2.16751 -0.156323,0.18836 -0.363764,1.01924 -0.46098,1.8464 -0.15534,1.3217 -0.247587,1.50393 -0.761304,1.50393 -0.3215,0 -0.821797,-0.20836 -1.111772,-0.46302 z m -2.296251,-2.60162 c -0.856922,-0.75354 -0.777048,-1.04796 0.216645,-0.79855 0.495488,0.12436 0.67378,0.3428 0.67378,0.82552 0,0.79281 0.04332,0.79412 -0.890425,-0.027 z m 2.477925,-0.11036 c 0,-0.14552 -0.178594,-0.26458 -0.396875,-0.26458 -0.4646,0 -0.515249,-0.60736 -0.113283,-1.35844 0.276083,-0.51587 0.301036,-0.51107 0.942361,0.18093 0.362323,0.39095 0.591894,0.88509 0.510158,1.09809 -0.08174,0.213 -0.148611,0.43707 -0.148611,0.49793 0,0.0609 -0.178594,0.11065 -0.396875,0.11065 -0.218281,0 -0.396875,-0.11906 -0.396875,-0.26458 z m 23.433776,-3.14881 c -0.393399,-0.56768 -1.547987,-1.83606 -2.565752,-2.818625 -1.351727,-1.304983 -1.756963,-1.84579 -1.503521,-2.006516 0.190825,-0.121017 0.460065,-0.221853 0.59831,-0.224082 0.142798,-0.0023 0.131614,-0.123792 -0.0259,-0.281301 -0.193278,-0.193278 -0.479674,-0.18502 -0.945589,0.02726 -0.722868,0.329361 -0.757063,0.30928 -3.232824,-1.898507 -0.590771,-0.526826 -1.58639,-1.217041 -2.212485,-1.53381 -0.909823,-0.46032 -1.105432,-0.679677 -0.974358,-1.092654 0.213827,-0.673708 -0.180572,-0.665574 -0.604009,0.01246 -0.390192,0.624797 -1.445921,0.694351 -2.00798,0.132292 -0.524111,-0.524111 -0.892798,-0.501625 -1.084579,0.06615 -0.398723,1.180447 -2.603312,2.976562 -3.653485,2.976562 -1.133739,0 -1.309068,-0.544189 -0.377095,-1.170434 0.566497,-0.380662 0.927256,-0.901232 1.097122,-1.583131 0.224721,-0.902109 0.185933,-1.070352 -0.346086,-1.501155 -0.494799,-0.400664 -0.548786,-0.579326 -0.309923,-1.025646 0.345836,-0.646201 1.383265,-0.712952 1.969494,-0.126723 0.58777,0.587769 1.102966,0.197171 0.548317,-0.415709 -0.410366,-0.45345 -0.359137,-0.499346 0.974952,-0.873461 2.391828,-0.670735 3.738275,-0.773728 4.324278,-0.330774 0.28786,0.217591 0.721819,0.399407 0.964354,0.404035 0.242535,0.0046 0.48066,0.09771 0.529167,0.206852 0.093,0.209248 2.795474,1.580759 4.586111,2.32746 2.307336,0.962166 5.126763,1.503073 4.7625,0.913686 -0.08994,-0.145521 -0.394621,-0.264583 -0.677074,-0.264583 -0.282453,0 -0.513551,-0.111602 -0.513551,-0.248004 0,-0.272009 3.381619,-2.014823 3.561117,-1.835325 0.105775,0.105775 4.1118,10.308103 4.1118,10.471713 0,0.0431 -0.168944,0.0783 -0.375433,0.0783 -0.206489,0 -0.712505,0.16912 -1.124479,0.37581 -0.411975,0.2067 -1.284828,0.59037 -1.939671,0.8526 -0.654844,0.26223 -1.250157,0.53959 -1.322917,0.61637 -0.161023,0.16991 -1.276387,0.80105 -1.415635,0.80105 -0.05494,0 -0.421772,-0.46446 -0.815173,-1.03214 z M 68.978758,93.507072 c 0.09805,-0.400182 0.272219,-0.765062 0.387052,-0.810844 0.114832,-0.04578 0.143205,-0.254142 0.06305,-0.463021 -0.08015,-0.208879 -0.02196,-0.379781 0.129325,-0.379781 0.535368,0 0.613676,1.039929 0.12849,1.706366 -0.633038,0.869525 -0.928482,0.847523 -0.707918,-0.05272 z"
         id="path838"
         inkscape:connector-curvature="0" />
      <path
         style="fill:#000000;fill-opacity:1;stroke-width:0.26458332"
         d="m 74.499115,111.74338 c -1.031904,-0.71175 -1.061637,-0.77595 -1.190625,-2.5709 -0.141948,-1.97531 -0.34029,-2.50239 -0.941657,-2.50239 -0.209693,0 -0.38126,-0.11906 -0.38126,-0.26458 0,-0.14552 -0.176996,-0.26458 -0.393324,-0.26458 -0.216328,0 -0.560939,-0.40116 -0.765801,-0.89147 -0.455118,-1.08925 -1.351398,-1.75437 -2.3641,-1.75437 -0.534814,0 -0.800233,0.1552 -0.896773,0.52437 -0.122596,0.4688 -0.198028,0.43376 -0.711926,-0.33073 -0.918426,-1.36629 -2.754844,-1.32905 -3.333348,0.0676 -0.181597,0.43841 -0.370993,0.79712 -0.42088,0.79712 -0.04989,0 -1.464192,-0.6654 -3.142901,-1.47867 -3.401805,-1.64804 -3.49944,-1.79212 -2.397358,-3.537932 0.726701,-1.151168 3.418844,-6.43529 3.83118,-7.519816 0.298426,-0.784922 1.056147,-0.903958 2.143154,-0.336686 1.134176,0.591888 3.212248,1.231433 4.001293,1.231433 0.82798,0 0.954794,0.407912 0.373821,1.202441 -0.667805,0.913278 0.406551,2.213768 1.84119,2.228728 0.974053,0.01016 2.877602,-1.167492 3.266387,-2.020783 0.251247,-0.551426 0.456434,-0.616021 1.940277,-0.610825 1.991815,0.007 3.500574,0.623075 4.798303,1.95938 0.504867,0.519874 1.00351,0.945226 1.108095,0.945226 0.104587,0 0.454913,0.26789 0.778504,0.595312 0.323592,0.327422 0.828268,0.773907 1.121504,0.992188 2.786439,2.074194 5.891454,5.629064 5.891454,6.745004 0,0.67624 -1.11401,1.72552 -1.821619,1.71578 -0.648793,-0.009 -1.354392,-0.69986 -3.308631,-3.23981 -1.028028,-1.33614 -1.90632,-2.24451 -2.071493,-2.14242 -0.188785,0.11667 -0.137469,0.28638 0.150203,0.49673 0.240326,0.17573 0.437236,0.42545 0.437577,0.55493 3.44e-4,0.12947 0.360868,0.65213 0.80117,1.16145 0.440301,0.50933 1.165315,1.48926 1.611141,2.17764 l 0.810593,1.2516 -0.487283,0.99364 c -0.597186,1.21776 -1.725028,1.92577 -2.403229,1.50865 -0.255918,-0.15739 -1.273681,-1.34802 -2.261697,-2.64583 -0.988015,-1.29781 -1.91075,-2.39934 -2.050521,-2.44785 -0.562296,-0.19514 -0.177864,0.53664 1.333372,2.53811 0.873125,1.15637 1.5875,2.22847 1.5875,2.38245 0,0.30213 -1.496446,1.64993 -1.8319,1.64993 -0.343449,0 -1.171767,-0.84893 -2.517059,-2.57969 -1.139692,-1.46625 -1.736458,-1.9804 -1.736458,-1.49605 0,0.16331 1.049909,1.72593 1.316281,1.95907 0.465716,0.40761 1.064969,1.65721 1.064969,2.22075 0,0.75501 -0.633517,1.48733 -1.27567,1.47463 -0.244267,-0.005 -0.920372,-0.33728 -1.502455,-0.73876 z m -4.319504,-0.1294 c -0.373085,-0.39713 -0.575288,-0.95078 -0.575288,-1.5752 v -0.96283 l 0.74919,0.42998 c 0.412055,0.23649 0.947836,0.35375 1.190625,0.26058 0.588023,-0.22564 0.590387,-1.96412 0.0036,-2.61256 -0.521592,-0.57636 -0.03877,-0.65813 0.529655,-0.0897 0.553406,0.5534 0.785147,1.83314 0.579856,3.20212 -0.113346,0.75584 -0.07608,1.16622 0.105909,1.16622 0.154437,0 0.280795,0.1786 0.280795,0.39688 0,0.6879 -2.168893,0.52473 -2.864296,-0.21549 z m -2.806674,-1.75055 c -0.672987,-0.70244 -0.729049,-0.90415 -0.595799,-2.14363 0.171385,-1.59421 0.253528,-1.73264 0.705212,-1.18839 0.433239,0.52202 1.826897,0.52601 2.02652,0.006 0.23494,-0.61224 -0.132745,-1.7192 -0.571046,-1.7192 -0.215509,0 -0.391834,0.11906 -0.391834,0.26458 0,0.14552 0.119062,0.26459 0.264583,0.26459 0.145521,0 0.264584,0.23812 0.264584,0.52916 0,0.61232 -0.481939,0.68322 -1.179071,0.17346 -1.203491,-0.88001 0.447028,-2.45581 1.672908,-1.59717 0.858319,0.60119 0.914421,1.57383 0.175621,3.04474 -0.368202,0.73308 -0.669458,1.7398 -0.669458,2.23717 0,1.16291 -0.663436,1.21315 -1.70222,0.12889 z m 3.223574,-0.91582 c -0.552737,-0.41958 -0.598361,-1.04207 -0.106308,-1.45044 0.511392,-0.42441 1.339968,0.52877 1.104513,1.27063 -0.201362,0.63443 -0.36135,0.66325 -0.998205,0.17981 z m -6.200945,-0.62387 c -0.289973,-0.25466 -0.600069,-0.92003 -0.689101,-1.47859 -0.141087,-0.88513 -0.104059,-0.99172 0.288303,-0.82988 1.111858,0.45862 1.46791,0.45548 1.812662,-0.016 0.520154,-0.71135 0.439038,-1.45603 -0.238003,-2.18499 -0.553101,-0.59552 -0.558807,-0.63419 -0.08047,-0.54536 0.71314,0.13244 1.617856,1.71303 1.240665,2.16751 -0.156323,0.18836 -0.363764,1.01924 -0.46098,1.8464 -0.15534,1.3217 -0.247587,1.50393 -0.761304,1.50393 -0.3215,0 -0.821797,-0.20836 -1.111772,-0.46302 z m -2.296251,-2.60162 c -0.856922,-0.75354 -0.777048,-1.04796 0.216645,-0.79855 0.495488,0.12436 0.67378,0.3428 0.67378,0.82552 0,0.79281 0.04332,0.79412 -0.890425,-0.027 z m 2.477925,-0.11036 c 0,-0.14552 -0.178594,-0.26458 -0.396875,-0.26458 -0.4646,0 -0.515249,-0.60736 -0.113283,-1.35844 0.276083,-0.51587 0.301036,-0.51107 0.942361,0.18093 0.362323,0.39095 0.591894,0.88509 0.510158,1.09809 -0.08174,0.213 -0.148611,0.43707 -0.148611,0.49793 0,0.0609 -0.178594,0.11065 -0.396875,0.11065 -0.218281,0 -0.396875,-0.11906 -0.396875,-0.26458 z m 23.433776,-3.14881 c -0.393399,-0.56768 -1.547987,-1.83606 -2.565752,-2.818625 -1.351727,-1.304983 -1.756963,-1.84579 -1.503521,-2.006516 0.190825,-0.121017 0.460065,-0.221853 0.59831,-0.224082 0.142798,-0.0023 0.131614,-0.123792 -0.0259,-0.281301 -0.193278,-0.193278 -0.479674,-0.18502 -0.945589,0.02726 -0.722868,0.329361 -0.757063,0.30928 -3.232824,-1.898507 -0.590771,-0.526826 -1.58639,-1.217041 -2.212485,-1.53381 -0.909823,-0.46032 -1.105432,-0.679677 -0.974358,-1.092654 0.213827,-0.673708 -0.180572,-0.665574 -0.604009,0.01246 -0.390192,0.624797 -1.445921,0.694351 -2.00798,0.132292 -0.524111,-0.524111 -0.892798,-0.501625 -1.084579,0.06615 -0.398723,1.180447 -2.603312,2.976562 -3.653485,2.976562 -1.133739,0 -1.309068,-0.544189 -0.377095,-1.170434 0.566497,-0.380662 0.927256,-0.901232 1.097122,-1.583131 0.224721,-0.902109 0.185933,-1.070352 -0.346086,-1.501155 -0.494799,-0.400664 -0.548786,-0.579326 -0.309923,-1.025646 0.345836,-0.646201 1.383265,-0.712952 1.969494,-0.126723 0.58777,0.587769 1.102966,0.197171 0.548317,-0.415709 -0.410366,-0.45345 -0.359137,-0.499346 0.974952,-0.873461 2.391828,-0.670735 3.738275,-0.773728 4.324278,-0.330774 0.28786,0.217591 0.721819,0.399407 0.964354,0.404035 0.242535,0.0046 0.48066,0.09771 0.529167,0.206852 0.093,0.209248 2.795474,1.580759 4.586111,2.32746 2.307336,0.962166 5.126763,1.503073 4.7625,0.913686 -0.08994,-0.145521 -0.394621,-0.264583 -0.677074,-0.264583 -0.282453,0 -0.513551,-0.111602 -0.513551,-0.248004 0,-0.272009 3.381619,-2.014823 3.561117,-1.835325 0.105775,0.105775 4.1118,10.308103 4.1118,10.471713 0,0.0431 -0.168944,0.0783 -0.375433,0.0783 -0.206489,0 -0.712505,0.16912 -1.124479,0.37581 -0.411975,0.2067 -1.284828,0.59037 -1.939671,0.8526 -0.654844,0.26223 -1.250157,0.53959 -1.322917,0.61637 -0.161023,0.16991 -1.276387,0.80105 -1.415635,0.80105 -0.05494,0 -0.421772,-0.46446 -0.815173,-1.03214 z M 68.978758,93.507072 c 0.09805,-0.400182 0.272219,-0.765062 0.387052,-0.810844 0.114832,-0.04578 0.143205,-0.254142 0.06305,-0.463021 -0.08015,-0.208879 -0.02196,-0.379781 0.129325,-0.379781 0.535368,0 0.613676,1.039929 0.12849,1.706366 -0.633038,0.869525 -0.928482,0.847523 -0.707918,-0.05272 z"
         id="path836"
         inkscape:connector-curvature="0" />
      <path
         style="fill:#000000;fill-opacity:1;stroke-width:0.26458332"
         d="m 74.499115,111.74338 c -1.031904,-0.71175 -1.061637,-0.77595 -1.190625,-2.5709 -0.141948,-1.97531 -0.34029,-2.50239 -0.941657,-2.50239 -0.209693,0 -0.38126,-0.11906 -0.38126,-0.26458 0,-0.14552 -0.176996,-0.26458 -0.393324,-0.26458 -0.216328,0 -0.560939,-0.40116 -0.765801,-0.89147 -0.455118,-1.08925 -1.351398,-1.75437 -2.3641,-1.75437 -0.534814,0 -0.800233,0.1552 -0.896773,0.52437 -0.122596,0.4688 -0.198028,0.43376 -0.711926,-0.33073 -0.918426,-1.36629 -2.754844,-1.32905 -3.333348,0.0676 -0.181597,0.43841 -0.370993,0.79712 -0.42088,0.79712 -0.04989,0 -1.464192,-0.6654 -3.142901,-1.47867 -3.401805,-1.64804 -3.49944,-1.79212 -2.397358,-3.537932 0.726701,-1.151168 3.418844,-6.43529 3.83118,-7.519816 0.298426,-0.784922 1.056147,-0.903958 2.143154,-0.336686 1.134176,0.591888 3.212248,1.231433 4.001293,1.231433 0.82798,0 0.954794,0.407912 0.373821,1.202441 -0.667805,0.913278 0.406551,2.213768 1.84119,2.228728 0.974053,0.01016 2.877602,-1.167492 3.266387,-2.020783 0.251247,-0.551426 0.456434,-0.616021 1.940277,-0.610825 1.991815,0.007 3.500574,0.623075 4.798303,1.95938 0.504867,0.519874 1.00351,0.945226 1.108095,0.945226 0.104587,0 0.454913,0.26789 0.778504,0.595312 0.323592,0.327422 0.828268,0.773907 1.121504,0.992188 2.786439,2.074194 5.891454,5.629064 5.891454,6.745004 0,0.67624 -1.11401,1.72552 -1.821619,1.71578 -0.648793,-0.009 -1.354392,-0.69986 -3.308631,-3.23981 -1.028028,-1.33614 -1.90632,-2.24451 -2.071493,-2.14242 -0.188785,0.11667 -0.137469,0.28638 0.150203,0.49673 0.240326,0.17573 0.437236,0.42545 0.437577,0.55493 3.44e-4,0.12947 0.360868,0.65213 0.80117,1.16145 0.440301,0.50933 1.165315,1.48926 1.611141,2.17764 l 0.810593,1.2516 -0.487283,0.99364 c -0.597186,1.21776 -1.725028,1.92577 -2.403229,1.50865 -0.255918,-0.15739 -1.273681,-1.34802 -2.261697,-2.64583 -0.988015,-1.29781 -1.91075,-2.39934 -2.050521,-2.44785 -0.562296,-0.19514 -0.177864,0.53664 1.333372,2.53811 0.873125,1.15637 1.5875,2.22847 1.5875,2.38245 0,0.30213 -1.496446,1.64993 -1.8319,1.64993 -0.343449,0 -1.171767,-0.84893 -2.517059,-2.57969 -1.139692,-1.46625 -1.736458,-1.9804 -1.736458,-1.49605 0,0.16331 1.049909,1.72593 1.316281,1.95907 0.465716,0.40761 1.064969,1.65721 1.064969,2.22075 0,0.75501 -0.633517,1.48733 -1.27567,1.47463 -0.244267,-0.005 -0.920372,-0.33728 -1.502455,-0.73876 z m -4.319504,-0.1294 c -0.373085,-0.39713 -0.575288,-0.95078 -0.575288,-1.5752 v -0.96283 l 0.74919,0.42998 c 0.412055,0.23649 0.947836,0.35375 1.190625,0.26058 0.588023,-0.22564 0.590387,-1.96412 0.0036,-2.61256 -0.521592,-0.57636 -0.03877,-0.65813 0.529655,-0.0897 0.553406,0.5534 0.785147,1.83314 0.579856,3.20212 -0.113346,0.75584 -0.07608,1.16622 0.105909,1.16622 0.154437,0 0.280795,0.1786 0.280795,0.39688 0,0.6879 -2.168893,0.52473 -2.864296,-0.21549 z m -2.806674,-1.75055 c -0.672987,-0.70244 -0.729049,-0.90415 -0.595799,-2.14363 0.171385,-1.59421 0.253528,-1.73264 0.705212,-1.18839 0.433239,0.52202 1.826897,0.52601 2.02652,0.006 0.23494,-0.61224 -0.132745,-1.7192 -0.571046,-1.7192 -0.215509,0 -0.391834,0.11906 -0.391834,0.26458 0,0.14552 0.119062,0.26459 0.264583,0.26459 0.145521,0 0.264584,0.23812 0.264584,0.52916 0,0.61232 -0.481939,0.68322 -1.179071,0.17346 -1.203491,-0.88001 0.447028,-2.45581 1.672908,-1.59717 0.858319,0.60119 0.914421,1.57383 0.175621,3.04474 -0.368202,0.73308 -0.669458,1.7398 -0.669458,2.23717 0,1.16291 -0.663436,1.21315 -1.70222,0.12889 z m 3.223574,-0.91582 c -0.552737,-0.41958 -0.598361,-1.04207 -0.106308,-1.45044 0.511392,-0.42441 1.339968,0.52877 1.104513,1.27063 -0.201362,0.63443 -0.36135,0.66325 -0.998205,0.17981 z m -6.200945,-0.62387 c -0.289973,-0.25466 -0.600069,-0.92003 -0.689101,-1.47859 -0.141087,-0.88513 -0.104059,-0.99172 0.288303,-0.82988 1.111858,0.45862 1.46791,0.45548 1.812662,-0.016 0.520154,-0.71135 0.439038,-1.45603 -0.238003,-2.18499 -0.553101,-0.59552 -0.558807,-0.63419 -0.08047,-0.54536 0.71314,0.13244 1.617856,1.71303 1.240665,2.16751 -0.156323,0.18836 -0.363764,1.01924 -0.46098,1.8464 -0.15534,1.3217 -0.247587,1.50393 -0.761304,1.50393 -0.3215,0 -0.821797,-0.20836 -1.111772,-0.46302 z m -2.296251,-2.60162 c -0.856922,-0.75354 -0.777048,-1.04796 0.216645,-0.79855 0.495488,0.12436 0.67378,0.3428 0.67378,0.82552 0,0.79281 0.04332,0.79412 -0.890425,-0.027 z m 2.477925,-0.11036 c 0,-0.14552 -0.178594,-0.26458 -0.396875,-0.26458 -0.4646,0 -0.515249,-0.60736 -0.113283,-1.35844 0.276083,-0.51587 0.301036,-0.51107 0.942361,0.18093 0.362323,0.39095 0.591894,0.88509 0.510158,1.09809 -0.08174,0.213 -0.148611,0.43707 -0.148611,0.49793 0,0.0609 -0.178594,0.11065 -0.396875,0.11065 -0.218281,0 -0.396875,-0.11906 -0.396875,-0.26458 z m 23.433776,-3.14881 c -0.393399,-0.56768 -1.547987,-1.83606 -2.565752,-2.818625 -1.351727,-1.304983 -1.756963,-1.84579 -1.503521,-2.006516 0.190825,-0.121017 0.460065,-0.221853 0.59831,-0.224082 0.142798,-0.0023 0.131614,-0.123792 -0.0259,-0.281301 -0.193278,-0.193278 -0.479674,-0.18502 -0.945589,0.02726 -0.722868,0.329361 -0.757063,0.30928 -3.232824,-1.898507 -0.590771,-0.526826 -1.58639,-1.217041 -2.212485,-1.53381 -0.909823,-0.46032 -1.105432,-0.679677 -0.974358,-1.092654 0.213827,-0.673708 -0.180572,-0.665574 -0.604009,0.01246 -0.390192,0.624797 -1.445921,0.694351 -2.00798,0.132292 -0.524111,-0.524111 -0.892798,-0.501625 -1.084579,0.06615 -0.398723,1.180447 -2.603312,2.976562 -3.653485,2.976562 -1.133739,0 -1.309068,-0.544189 -0.377095,-1.170434 0.566497,-0.380662 0.927256,-0.901232 1.097122,-1.583131 0.224721,-0.902109 0.185933,-1.070352 -0.346086,-1.501155 -0.494799,-0.400664 -0.548786,-0.579326 -0.309923,-1.025646 0.345836,-0.646201 1.383265,-0.712952 1.969494,-0.126723 0.58777,0.587769 1.102966,0.197171 0.548317,-0.415709 -0.410366,-0.45345 -0.359137,-0.499346 0.974952,-0.873461 2.391828,-0.670735 3.738275,-0.773728 4.324278,-0.330774 0.28786,0.217591 0.721819,0.399407 0.964354,0.404035 0.242535,0.0046 0.48066,0.09771 0.529167,0.206852 0.093,0.209248 2.795474,1.580759 4.586111,2.32746 2.307336,0.962166 5.126763,1.503073 4.7625,0.913686 -0.08994,-0.145521 -0.394621,-0.264583 -0.677074,-0.264583 -0.282453,0 -0.513551,-0.111602 -0.513551,-0.248004 0,-0.272009 3.381619,-2.014823 3.561117,-1.835325 0.105775,0.105775 4.1118,10.308103 4.1118,10.471713 0,0.0431 -0.168944,0.0783 -0.375433,0.0783 -0.206489,0 -0.712505,0.16912 -1.124479,0.37581 -0.411975,0.2067 -1.284828,0.59037 -1.939671,0.8526 -0.654844,0.26223 -1.250157,0.53959 -1.322917,0.61637 -0.161023,0.16991 -1.276387,0.80105 -1.415635,0.80105 -0.05494,0 -0.421772,-0.46446 -0.815173,-1.03214 z M 68.978758,93.507072 c 0.09805,-0.400182 0.272219,-0.765062 0.387052,-0.810844 0.114832,-0.04578 0.143205,-0.254142 0.06305,-0.463021 -0.08015,-0.208879 -0.02196,-0.379781 0.129325,-0.379781 0.535368,0 0.613676,1.039929 0.12849,1.706366 -0.633038,0.869525 -0.928482,0.847523 -0.707918,-0.05272 z"
         id="path834"
         inkscape:connector-curvature="0" />
      <path
         style="fill:#000000;fill-opacity:1;stroke-width:0.26458332"
         d="m 74.499115,111.74338 c -1.031904,-0.71175 -1.061637,-0.77595 -1.190625,-2.5709 -0.141948,-1.97531 -0.34029,-2.50239 -0.941657,-2.50239 -0.209693,0 -0.38126,-0.11906 -0.38126,-0.26458 0,-0.14552 -0.176996,-0.26458 -0.393324,-0.26458 -0.216328,0 -0.560939,-0.40116 -0.765801,-0.89147 -0.455118,-1.08925 -1.351398,-1.75437 -2.3641,-1.75437 -0.534814,0 -0.800233,0.1552 -0.896773,0.52437 -0.122596,0.4688 -0.198028,0.43376 -0.711926,-0.33073 -0.918426,-1.36629 -2.754844,-1.32905 -3.333348,0.0676 -0.181597,0.43841 -0.370993,0.79712 -0.42088,0.79712 -0.04989,0 -1.464192,-0.6654 -3.142901,-1.47867 -3.401805,-1.64804 -3.49944,-1.79212 -2.397358,-3.537932 0.726701,-1.151168 3.418844,-6.43529 3.83118,-7.519816 0.298426,-0.784922 1.056147,-0.903958 2.143154,-0.336686 1.134176,0.591888 3.212248,1.231433 4.001293,1.231433 0.82798,0 0.954794,0.407912 0.373821,1.202441 -0.667805,0.913278 0.406551,2.213768 1.84119,2.228728 0.974053,0.01016 2.877602,-1.167492 3.266387,-2.020783 0.251247,-0.551426 0.456434,-0.616021 1.940277,-0.610825 1.991815,0.007 3.500574,0.623075 4.798303,1.95938 0.504867,0.519874 1.00351,0.945226 1.108095,0.945226 0.104587,0 0.454913,0.26789 0.778504,0.595312 0.323592,0.327422 0.828268,0.773907 1.121504,0.992188 2.786439,2.074194 5.891454,5.629064 5.891454,6.745004 0,0.67624 -1.11401,1.72552 -1.821619,1.71578 -0.648793,-0.009 -1.354392,-0.69986 -3.308631,-3.23981 -1.028028,-1.33614 -1.90632,-2.24451 -2.071493,-2.14242 -0.188785,0.11667 -0.137469,0.28638 0.150203,0.49673 0.240326,0.17573 0.437236,0.42545 0.437577,0.55493 3.44e-4,0.12947 0.360868,0.65213 0.80117,1.16145 0.440301,0.50933 1.165315,1.48926 1.611141,2.17764 l 0.810593,1.2516 -0.487283,0.99364 c -0.597186,1.21776 -1.725028,1.92577 -2.403229,1.50865 -0.255918,-0.15739 -1.273681,-1.34802 -2.261697,-2.64583 -0.988015,-1.29781 -1.91075,-2.39934 -2.050521,-2.44785 -0.562296,-0.19514 -0.177864,0.53664 1.333372,2.53811 0.873125,1.15637 1.5875,2.22847 1.5875,2.38245 0,0.30213 -1.496446,1.64993 -1.8319,1.64993 -0.343449,0 -1.171767,-0.84893 -2.517059,-2.57969 -1.139692,-1.46625 -1.736458,-1.9804 -1.736458,-1.49605 0,0.16331 1.049909,1.72593 1.316281,1.95907 0.465716,0.40761 1.064969,1.65721 1.064969,2.22075 0,0.75501 -0.633517,1.48733 -1.27567,1.47463 -0.244267,-0.005 -0.920372,-0.33728 -1.502455,-0.73876 z m -4.319504,-0.1294 c -0.373085,-0.39713 -0.575288,-0.95078 -0.575288,-1.5752 v -0.96283 l 0.74919,0.42998 c 0.412055,0.23649 0.947836,0.35375 1.190625,0.26058 0.588023,-0.22564 0.590387,-1.96412 0.0036,-2.61256 -0.521592,-0.57636 -0.03877,-0.65813 0.529655,-0.0897 0.553406,0.5534 0.785147,1.83314 0.579856,3.20212 -0.113346,0.75584 -0.07608,1.16622 0.105909,1.16622 0.154437,0 0.280795,0.1786 0.280795,0.39688 0,0.6879 -2.168893,0.52473 -2.864296,-0.21549 z m -2.806674,-1.75055 c -0.672987,-0.70244 -0.729049,-0.90415 -0.595799,-2.14363 0.171385,-1.59421 0.253528,-1.73264 0.705212,-1.18839 0.433239,0.52202 1.826897,0.52601 2.02652,0.006 0.23494,-0.61224 -0.132745,-1.7192 -0.571046,-1.7192 -0.215509,0 -0.391834,0.11906 -0.391834,0.26458 0,0.14552 0.119062,0.26459 0.264583,0.26459 0.145521,0 0.264584,0.23812 0.264584,0.52916 0,0.61232 -0.481939,0.68322 -1.179071,0.17346 -1.203491,-0.88001 0.447028,-2.45581 1.672908,-1.59717 0.858319,0.60119 0.914421,1.57383 0.175621,3.04474 -0.368202,0.73308 -0.669458,1.7398 -0.669458,2.23717 0,1.16291 -0.663436,1.21315 -1.70222,0.12889 z m 3.223574,-0.91582 c -0.552737,-0.41958 -0.598361,-1.04207 -0.106308,-1.45044 0.511392,-0.42441 1.339968,0.52877 1.104513,1.27063 -0.201362,0.63443 -0.36135,0.66325 -0.998205,0.17981 z m -6.200945,-0.62387 c -0.289973,-0.25466 -0.600069,-0.92003 -0.689101,-1.47859 -0.141087,-0.88513 -0.104059,-0.99172 0.288303,-0.82988 1.111858,0.45862 1.46791,0.45548 1.812662,-0.016 0.520154,-0.71135 0.439038,-1.45603 -0.238003,-2.18499 -0.553101,-0.59552 -0.558807,-0.63419 -0.08047,-0.54536 0.71314,0.13244 1.617856,1.71303 1.240665,2.16751 -0.156323,0.18836 -0.363764,1.01924 -0.46098,1.8464 -0.15534,1.3217 -0.247587,1.50393 -0.761304,1.50393 -0.3215,0 -0.821797,-0.20836 -1.111772,-0.46302 z m -2.296251,-2.60162 c -0.856922,-0.75354 -0.777048,-1.04796 0.216645,-0.79855 0.495488,0.12436 0.67378,0.3428 0.67378,0.82552 0,0.79281 0.04332,0.79412 -0.890425,-0.027 z m 2.477925,-0.11036 c 0,-0.14552 -0.178594,-0.26458 -0.396875,-0.26458 -0.4646,0 -0.515249,-0.60736 -0.113283,-1.35844 0.276083,-0.51587 0.301036,-0.51107 0.942361,0.18093 0.362323,0.39095 0.591894,0.88509 0.510158,1.09809 -0.08174,0.213 -0.148611,0.43707 -0.148611,0.49793 0,0.0609 -0.178594,0.11065 -0.396875,0.11065 -0.218281,0 -0.396875,-0.11906 -0.396875,-0.26458 z m 23.433776,-3.14881 c -0.393399,-0.56768 -1.547987,-1.83606 -2.565752,-2.818625 -1.351727,-1.304983 -1.756963,-1.84579 -1.503521,-2.006516 0.190825,-0.121017 0.460065,-0.221853 0.59831,-0.224082 0.142798,-0.0023 0.131614,-0.123792 -0.0259,-0.281301 -0.193278,-0.193278 -0.479674,-0.18502 -0.945589,0.02726 -0.722868,0.329361 -0.757063,0.30928 -3.232824,-1.898507 -0.590771,-0.526826 -1.58639,-1.217041 -2.212485,-1.53381 -0.909823,-0.46032 -1.105432,-0.679677 -0.974358,-1.092654 0.213827,-0.673708 -0.180572,-0.665574 -0.604009,0.01246 -0.390192,0.624797 -1.445921,0.694351 -2.00798,0.132292 -0.524111,-0.524111 -0.892798,-0.501625 -1.084579,0.06615 -0.398723,1.180447 -2.603312,2.976562 -3.653485,2.976562 -1.133739,0 -1.309068,-0.544189 -0.377095,-1.170434 0.566497,-0.380662 0.927256,-0.901232 1.097122,-1.583131 0.224721,-0.902109 0.185933,-1.070352 -0.346086,-1.501155 -0.494799,-0.400664 -0.548786,-0.579326 -0.309923,-1.025646 0.345836,-0.646201 1.383265,-0.712952 1.969494,-0.126723 0.58777,0.587769 1.102966,0.197171 0.548317,-0.415709 -0.410366,-0.45345 -0.359137,-0.499346 0.974952,-0.873461 2.391828,-0.670735 3.738275,-0.773728 4.324278,-0.330774 0.28786,0.217591 0.721819,0.399407 0.964354,0.404035 0.242535,0.0046 0.48066,0.09771 0.529167,0.206852 0.093,0.209248 2.795474,1.580759 4.586111,2.32746 2.307336,0.962166 5.126763,1.503073 4.7625,0.913686 -0.08994,-0.145521 -0.394621,-0.264583 -0.677074,-0.264583 -0.282453,0 -0.513551,-0.111602 -0.513551,-0.248004 0,-0.272009 3.381619,-2.014823 3.561117,-1.835325 0.105775,0.105775 4.1118,10.308103 4.1118,10.471713 0,0.0431 -0.168944,0.0783 -0.375433,0.0783 -0.206489,0 -0.712505,0.16912 -1.124479,0.37581 -0.411975,0.2067 -1.284828,0.59037 -1.939671,0.8526 -0.654844,0.26223 -1.250157,0.53959 -1.322917,0.61637 -0.161023,0.16991 -1.276387,0.80105 -1.415635,0.80105 -0.05494,0 -0.421772,-0.46446 -0.815173,-1.03214 z M 68.978758,93.507072 c 0.09805,-0.400182 0.272219,-0.765062 0.387052,-0.810844 0.114832,-0.04578 0.143205,-0.254142 0.06305,-0.463021 -0.08015,-0.208879 -0.02196,-0.379781 0.129325,-0.379781 0.535368,0 0.613676,1.039929 0.12849,1.706366 -0.633038,0.869525 -0.928482,0.847523 -0.707918,-0.05272 z"
         id="path832"
         inkscape:connector-curvature="0" />
      <path
         style="fill:#000000;fill-opacity:1;stroke-width:0.26458332"
         d="m 74.499115,111.74338 c -1.031904,-0.71175 -1.061637,-0.77595 -1.190625,-2.5709 -0.141948,-1.97531 -0.34029,-2.50239 -0.941657,-2.50239 -0.209693,0 -0.38126,-0.11906 -0.38126,-0.26458 0,-0.14552 -0.176996,-0.26458 -0.393324,-0.26458 -0.216328,0 -0.560939,-0.40116 -0.765801,-0.89147 -0.455118,-1.08925 -1.351398,-1.75437 -2.3641,-1.75437 -0.534814,0 -0.800233,0.1552 -0.896773,0.52437 -0.122596,0.4688 -0.198028,0.43376 -0.711926,-0.33073 -0.918426,-1.36629 -2.754844,-1.32905 -3.333348,0.0676 -0.181597,0.43841 -0.370993,0.79712 -0.42088,0.79712 -0.04989,0 -1.464192,-0.6654 -3.142901,-1.47867 -3.401805,-1.64804 -3.49944,-1.79212 -2.397358,-3.537932 0.726701,-1.151168 3.418844,-6.43529 3.83118,-7.519816 0.298426,-0.784922 1.056147,-0.903958 2.143154,-0.336686 1.134176,0.591888 3.212248,1.231433 4.001293,1.231433 0.82798,0 0.954794,0.407912 0.373821,1.202441 -0.667805,0.913278 0.406551,2.213768 1.84119,2.228728 0.974053,0.01016 2.877602,-1.167492 3.266387,-2.020783 0.251247,-0.551426 0.456434,-0.616021 1.940277,-0.610825 1.991815,0.007 3.500574,0.623075 4.798303,1.95938 0.504867,0.519874 1.00351,0.945226 1.108095,0.945226 0.104587,0 0.454913,0.26789 0.778504,0.595312 0.323592,0.327422 0.828268,0.773907 1.121504,0.992188 2.786439,2.074194 5.891454,5.629064 5.891454,6.745004 0,0.67624 -1.11401,1.72552 -1.821619,1.71578 -0.648793,-0.009 -1.354392,-0.69986 -3.308631,-3.23981 -1.028028,-1.33614 -1.90632,-2.24451 -2.071493,-2.14242 -0.188785,0.11667 -0.137469,0.28638 0.150203,0.49673 0.240326,0.17573 0.437236,0.42545 0.437577,0.55493 3.44e-4,0.12947 0.360868,0.65213 0.80117,1.16145 0.440301,0.50933 1.165315,1.48926 1.611141,2.17764 l 0.810593,1.2516 -0.487283,0.99364 c -0.597186,1.21776 -1.725028,1.92577 -2.403229,1.50865 -0.255918,-0.15739 -1.273681,-1.34802 -2.261697,-2.64583 -0.988015,-1.29781 -1.91075,-2.39934 -2.050521,-2.44785 -0.562296,-0.19514 -0.177864,0.53664 1.333372,2.53811 0.873125,1.15637 1.5875,2.22847 1.5875,2.38245 0,0.30213 -1.496446,1.64993 -1.8319,1.64993 -0.343449,0 -1.171767,-0.84893 -2.517059,-2.57969 -1.139692,-1.46625 -1.736458,-1.9804 -1.736458,-1.49605 0,0.16331 1.049909,1.72593 1.316281,1.95907 0.465716,0.40761 1.064969,1.65721 1.064969,2.22075 0,0.75501 -0.633517,1.48733 -1.27567,1.47463 -0.244267,-0.005 -0.920372,-0.33728 -1.502455,-0.73876 z m -4.319504,-0.1294 c -0.373085,-0.39713 -0.575288,-0.95078 -0.575288,-1.5752 v -0.96283 l 0.74919,0.42998 c 0.412055,0.23649 0.947836,0.35375 1.190625,0.26058 0.588023,-0.22564 0.590387,-1.96412 0.0036,-2.61256 -0.521592,-0.57636 -0.03877,-0.65813 0.529655,-0.0897 0.553406,0.5534 0.785147,1.83314 0.579856,3.20212 -0.113346,0.75584 -0.07608,1.16622 0.105909,1.16622 0.154437,0 0.280795,0.1786 0.280795,0.39688 0,0.6879 -2.168893,0.52473 -2.864296,-0.21549 z m -2.806674,-1.75055 c -0.672987,-0.70244 -0.729049,-0.90415 -0.595799,-2.14363 0.171385,-1.59421 0.253528,-1.73264 0.705212,-1.18839 0.433239,0.52202 1.826897,0.52601 2.02652,0.006 0.23494,-0.61224 -0.132745,-1.7192 -0.571046,-1.7192 -0.215509,0 -0.391834,0.11906 -0.391834,0.26458 0,0.14552 0.119062,0.26459 0.264583,0.26459 0.145521,0 0.264584,0.23812 0.264584,0.52916 0,0.61232 -0.481939,0.68322 -1.179071,0.17346 -1.203491,-0.88001 0.447028,-2.45581 1.672908,-1.59717 0.858319,0.60119 0.914421,1.57383 0.175621,3.04474 -0.368202,0.73308 -0.669458,1.7398 -0.669458,2.23717 0,1.16291 -0.663436,1.21315 -1.70222,0.12889 z m 3.223574,-0.91582 c -0.552737,-0.41958 -0.598361,-1.04207 -0.106308,-1.45044 0.511392,-0.42441 1.339968,0.52877 1.104513,1.27063 -0.201362,0.63443 -0.36135,0.66325 -0.998205,0.17981 z m -6.200945,-0.62387 c -0.289973,-0.25466 -0.600069,-0.92003 -0.689101,-1.47859 -0.141087,-0.88513 -0.104059,-0.99172 0.288303,-0.82988 1.111858,0.45862 1.46791,0.45548 1.812662,-0.016 0.520154,-0.71135 0.439038,-1.45603 -0.238003,-2.18499 -0.553101,-0.59552 -0.558807,-0.63419 -0.08047,-0.54536 0.71314,0.13244 1.617856,1.71303 1.240665,2.16751 -0.156323,0.18836 -0.363764,1.01924 -0.46098,1.8464 -0.15534,1.3217 -0.247587,1.50393 -0.761304,1.50393 -0.3215,0 -0.821797,-0.20836 -1.111772,-0.46302 z m -2.296251,-2.60162 c -0.856922,-0.75354 -0.777048,-1.04796 0.216645,-0.79855 0.495488,0.12436 0.67378,0.3428 0.67378,0.82552 0,0.79281 0.04332,0.79412 -0.890425,-0.027 z m 2.477925,-0.11036 c 0,-0.14552 -0.178594,-0.26458 -0.396875,-0.26458 -0.4646,0 -0.515249,-0.60736 -0.113283,-1.35844 0.276083,-0.51587 0.301036,-0.51107 0.942361,0.18093 0.362323,0.39095 0.591894,0.88509 0.510158,1.09809 -0.08174,0.213 -0.148611,0.43707 -0.148611,0.49793 0,0.0609 -0.178594,0.11065 -0.396875,0.11065 -0.218281,0 -0.396875,-0.11906 -0.396875,-0.26458 z m 23.433776,-3.14881 c -0.393399,-0.56768 -1.547987,-1.83606 -2.565752,-2.818625 -1.351727,-1.304983 -1.756963,-1.84579 -1.503521,-2.006516 0.190825,-0.121017 0.460065,-0.221853 0.59831,-0.224082 0.142798,-0.0023 0.131614,-0.123792 -0.0259,-0.281301 -0.193278,-0.193278 -0.479674,-0.18502 -0.945589,0.02726 -0.722868,0.329361 -0.757063,0.30928 -3.232824,-1.898507 -0.590771,-0.526826 -1.58639,-1.217041 -2.212485,-1.53381 -0.909823,-0.46032 -1.105432,-0.679677 -0.974358,-1.092654 0.213827,-0.673708 -0.180572,-0.665574 -0.604009,0.01246 -0.390192,0.624797 -1.445921,0.694351 -2.00798,0.132292 -0.524111,-0.524111 -0.892798,-0.501625 -1.084579,0.06615 -0.398723,1.180447 -2.603312,2.976562 -3.653485,2.976562 -1.133739,0 -1.309068,-0.544189 -0.377095,-1.170434 0.566497,-0.380662 0.927256,-0.901232 1.097122,-1.583131 0.224721,-0.902109 0.185933,-1.070352 -0.346086,-1.501155 -0.494799,-0.400664 -0.548786,-0.579326 -0.309923,-1.025646 0.345836,-0.646201 1.383265,-0.712952 1.969494,-0.126723 0.58777,0.587769 1.102966,0.197171 0.548317,-0.415709 -0.410366,-0.45345 -0.359137,-0.499346 0.974952,-0.873461 2.391828,-0.670735 3.738275,-0.773728 4.324278,-0.330774 0.28786,0.217591 0.721819,0.399407 0.964354,0.404035 0.242535,0.0046 0.48066,0.09771 0.529167,0.206852 0.093,0.209248 2.795474,1.580759 4.586111,2.32746 2.307336,0.962166 5.126763,1.503073 4.7625,0.913686 -0.08994,-0.145521 -0.394621,-0.264583 -0.677074,-0.264583 -0.282453,0 -0.513551,-0.111602 -0.513551,-0.248004 0,-0.272009 3.381619,-2.014823 3.561117,-1.835325 0.105775,0.105775 4.1118,10.308103 4.1118,10.471713 0,0.0431 -0.168944,0.0783 -0.375433,0.0783 -0.206489,0 -0.712505,0.16912 -1.124479,0.37581 -0.411975,0.2067 -1.284828,0.59037 -1.939671,0.8526 -0.654844,0.26223 -1.250157,0.53959 -1.322917,0.61637 -0.161023,0.16991 -1.276387,0.80105 -1.415635,0.80105 -0.05494,0 -0.421772,-0.46446 -0.815173,-1.03214 z M 68.978758,93.507072 c 0.09805,-0.400182 0.272219,-0.765062 0.387052,-0.810844 0.114832,-0.04578 0.143205,-0.254142 0.06305,-0.463021 -0.08015,-0.208879 -0.02196,-0.379781 0.129325,-0.379781 0.535368,0 0.613676,1.039929 0.12849,1.706366 -0.633038,0.869525 -0.928482,0.847523 -0.707918,-0.05272 z"
         id="path830"
         inkscape:connector-curvature="0" />
      <path
         style="fill:#000000;fill-opacity:1;stroke-width:0.26458332"
         d="m 74.499115,111.74338 c -1.031904,-0.71175 -1.061637,-0.77595 -1.190625,-2.5709 -0.141948,-1.97531 -0.34029,-2.50239 -0.941657,-2.50239 -0.209693,0 -0.38126,-0.11906 -0.38126,-0.26458 0,-0.14552 -0.176996,-0.26458 -0.393324,-0.26458 -0.216328,0 -0.560939,-0.40116 -0.765801,-0.89147 -0.455118,-1.08925 -1.351398,-1.75437 -2.3641,-1.75437 -0.534814,0 -0.800233,0.1552 -0.896773,0.52437 -0.122596,0.4688 -0.198028,0.43376 -0.711926,-0.33073 -0.918426,-1.36629 -2.754844,-1.32905 -3.333348,0.0676 -0.181597,0.43841 -0.370993,0.79712 -0.42088,0.79712 -0.04989,0 -1.464192,-0.6654 -3.142901,-1.47867 -3.401805,-1.64804 -3.49944,-1.79212 -2.397358,-3.537932 0.726701,-1.151168 3.418844,-6.43529 3.83118,-7.519816 0.298426,-0.784922 1.056147,-0.903958 2.143154,-0.336686 1.134176,0.591888 3.212248,1.231433 4.001293,1.231433 0.82798,0 0.954794,0.407912 0.373821,1.202441 -0.667805,0.913278 0.406551,2.213768 1.84119,2.228728 0.974053,0.01016 2.877602,-1.167492 3.266387,-2.020783 0.251247,-0.551426 0.456434,-0.616021 1.940277,-0.610825 1.991815,0.007 3.500574,0.623075 4.798303,1.95938 0.504867,0.519874 1.00351,0.945226 1.108095,0.945226 0.104587,0 0.454913,0.26789 0.778504,0.595312 0.323592,0.327422 0.828268,0.773907 1.121504,0.992188 2.786439,2.074194 5.891454,5.629064 5.891454,6.745004 0,0.67624 -1.11401,1.72552 -1.821619,1.71578 -0.648793,-0.009 -1.354392,-0.69986 -3.308631,-3.23981 -1.028028,-1.33614 -1.90632,-2.24451 -2.071493,-2.14242 -0.188785,0.11667 -0.137469,0.28638 0.150203,0.49673 0.240326,0.17573 0.437236,0.42545 0.437577,0.55493 3.44e-4,0.12947 0.360868,0.65213 0.80117,1.16145 0.440301,0.50933 1.165315,1.48926 1.611141,2.17764 l 0.810593,1.2516 -0.487283,0.99364 c -0.597186,1.21776 -1.725028,1.92577 -2.403229,1.50865 -0.255918,-0.15739 -1.273681,-1.34802 -2.261697,-2.64583 -0.988015,-1.29781 -1.91075,-2.39934 -2.050521,-2.44785 -0.562296,-0.19514 -0.177864,0.53664 1.333372,2.53811 0.873125,1.15637 1.5875,2.22847 1.5875,2.38245 0,0.30213 -1.496446,1.64993 -1.8319,1.64993 -0.343449,0 -1.171767,-0.84893 -2.517059,-2.57969 -1.139692,-1.46625 -1.736458,-1.9804 -1.736458,-1.49605 0,0.16331 1.049909,1.72593 1.316281,1.95907 0.465716,0.40761 1.064969,1.65721 1.064969,2.22075 0,0.75501 -0.633517,1.48733 -1.27567,1.47463 -0.244267,-0.005 -0.920372,-0.33728 -1.502455,-0.73876 z m -4.319504,-0.1294 c -0.373085,-0.39713 -0.575288,-0.95078 -0.575288,-1.5752 v -0.96283 l 0.74919,0.42998 c 0.412055,0.23649 0.947836,0.35375 1.190625,0.26058 0.588023,-0.22564 0.590387,-1.96412 0.0036,-2.61256 -0.521592,-0.57636 -0.03877,-0.65813 0.529655,-0.0897 0.553406,0.5534 0.785147,1.83314 0.579856,3.20212 -0.113346,0.75584 -0.07608,1.16622 0.105909,1.16622 0.154437,0 0.280795,0.1786 0.280795,0.39688 0,0.6879 -2.168893,0.52473 -2.864296,-0.21549 z m -2.806674,-1.75055 c -0.672987,-0.70244 -0.729049,-0.90415 -0.595799,-2.14363 0.171385,-1.59421 0.253528,-1.73264 0.705212,-1.18839 0.433239,0.52202 1.826897,0.52601 2.02652,0.006 0.23494,-0.61224 -0.132745,-1.7192 -0.571046,-1.7192 -0.215509,0 -0.391834,0.11906 -0.391834,0.26458 0,0.14552 0.119062,0.26459 0.264583,0.26459 0.145521,0 0.264584,0.23812 0.264584,0.52916 0,0.61232 -0.481939,0.68322 -1.179071,0.17346 -1.203491,-0.88001 0.447028,-2.45581 1.672908,-1.59717 0.858319,0.60119 0.914421,1.57383 0.175621,3.04474 -0.368202,0.73308 -0.669458,1.7398 -0.669458,2.23717 0,1.16291 -0.663436,1.21315 -1.70222,0.12889 z m 3.223574,-0.91582 c -0.552737,-0.41958 -0.598361,-1.04207 -0.106308,-1.45044 0.511392,-0.42441 1.339968,0.52877 1.104513,1.27063 -0.201362,0.63443 -0.36135,0.66325 -0.998205,0.17981 z m -6.200945,-0.62387 c -0.289973,-0.25466 -0.600069,-0.92003 -0.689101,-1.47859 -0.141087,-0.88513 -0.104059,-0.99172 0.288303,-0.82988 1.111858,0.45862 1.46791,0.45548 1.812662,-0.016 0.520154,-0.71135 0.439038,-1.45603 -0.238003,-2.18499 -0.553101,-0.59552 -0.558807,-0.63419 -0.08047,-0.54536 0.71314,0.13244 1.617856,1.71303 1.240665,2.16751 -0.156323,0.18836 -0.363764,1.01924 -0.46098,1.8464 -0.15534,1.3217 -0.247587,1.50393 -0.761304,1.50393 -0.3215,0 -0.821797,-0.20836 -1.111772,-0.46302 z m -2.296251,-2.60162 c -0.856922,-0.75354 -0.777048,-1.04796 0.216645,-0.79855 0.495488,0.12436 0.67378,0.3428 0.67378,0.82552 0,0.79281 0.04332,0.79412 -0.890425,-0.027 z m 2.477925,-0.11036 c 0,-0.14552 -0.178594,-0.26458 -0.396875,-0.26458 -0.4646,0 -0.515249,-0.60736 -0.113283,-1.35844 0.276083,-0.51587 0.301036,-0.51107 0.942361,0.18093 0.362323,0.39095 0.591894,0.88509 0.510158,1.09809 -0.08174,0.213 -0.148611,0.43707 -0.148611,0.49793 0,0.0609 -0.178594,0.11065 -0.396875,0.11065 -0.218281,0 -0.396875,-0.11906 -0.396875,-0.26458 z m 23.433776,-3.14881 c -0.393399,-0.56768 -1.547987,-1.83606 -2.565752,-2.818625 -1.351727,-1.304983 -1.756963,-1.84579 -1.503521,-2.006516 0.190825,-0.121017 0.460065,-0.221853 0.59831,-0.224082 0.142798,-0.0023 0.131614,-0.123792 -0.0259,-0.281301 -0.193278,-0.193278 -0.479674,-0.18502 -0.945589,0.02726 -0.722868,0.329361 -0.757063,0.30928 -3.232824,-1.898507 -0.590771,-0.526826 -1.58639,-1.217041 -2.212485,-1.53381 -0.909823,-0.46032 -1.105432,-0.679677 -0.974358,-1.092654 0.213827,-0.673708 -0.180572,-0.665574 -0.604009,0.01246 -0.390192,0.624797 -1.445921,0.694351 -2.00798,0.132292 -0.524111,-0.524111 -0.892798,-0.501625 -1.084579,0.06615 -0.398723,1.180447 -2.603312,2.976562 -3.653485,2.976562 -1.133739,0 -1.309068,-0.544189 -0.377095,-1.170434 0.566497,-0.380662 0.927256,-0.901232 1.097122,-1.583131 0.224721,-0.902109 0.185933,-1.070352 -0.346086,-1.501155 -0.494799,-0.400664 -0.548786,-0.579326 -0.309923,-1.025646 0.345836,-0.646201 1.383265,-0.712952 1.969494,-0.126723 0.58777,0.587769 1.102966,0.197171 0.548317,-0.415709 -0.410366,-0.45345 -0.359137,-0.499346 0.974952,-0.873461 2.391828,-0.670735 3.738275,-0.773728 4.324278,-0.330774 0.28786,0.217591 0.721819,0.399407 0.964354,0.404035 0.242535,0.0046 0.48066,0.09771 0.529167,0.206852 0.093,0.209248 2.795474,1.580759 4.586111,2.32746 2.307336,0.962166 5.126763,1.503073 4.7625,0.913686 -0.08994,-0.145521 -0.394621,-0.264583 -0.677074,-0.264583 -0.282453,0 -0.513551,-0.111602 -0.513551,-0.248004 0,-0.272009 3.381619,-2.014823 3.561117,-1.835325 0.105775,0.105775 4.1118,10.308103 4.1118,10.471713 0,0.0431 -0.168944,0.0783 -0.375433,0.0783 -0.206489,0 -0.712505,0.16912 -1.124479,0.37581 -0.411975,0.2067 -1.284828,0.59037 -1.939671,0.8526 -0.654844,0.26223 -1.250157,0.53959 -1.322917,0.61637 -0.161023,0.16991 -1.276387,0.80105 -1.415635,0.80105 -0.05494,0 -0.421772,-0.46446 -0.815173,-1.03214 z M 68.978758,93.507072 c 0.09805,-0.400182 0.272219,-0.765062 0.387052,-0.810844 0.114832,-0.04578 0.143205,-0.254142 0.06305,-0.463021 -0.08015,-0.208879 -0.02196,-0.379781 0.129325,-0.379781 0.535368,0 0.613676,1.039929 0.12849,1.706366 -0.633038,0.869525 -0.928482,0.847523 -0.707918,-0.05272 z"
         id="path828"
         inkscape:connector-curvature="0" />
    </g>
  </g>
</svg>
